# xmcd
#
# Track frame offsets:
#	150
#	23514
#	42394
#	67504
#	91673
#	116768
#	139104
#	180308
#	211137
#	251928
#	291879
#
# Disc length: 4272 seconds
# Revision: 0
# Processed by: cddbd v1.5.2PL0 Copyright (c) Steve Scherf et al.
# Submitted via: dBpowerAMP V12.0
#
DISCID=8f10ae0b
DTITLE=Dżem - List do R.
DYEAR=1995
DGENRE=Blues
TTITLE0=Dzień w którym pękło niebo
TTITLE1=Wokół sami lunatycy
TTITLE2=Mała Aleja Róż
TTITLE3=Kim jestem, jestem sobie
TTITLE4=Jesiony
TTITLE5=Abym mógł przed siebie iść
TTITLE6=Modlitwa III - Pozwól mi
TTITLE7=Złoty Paw
TTITLE8=Obłuda
TTITLE9=List do M.
TTITLE10=Zapal świeczkę
EXTD=
EXTT0=
EXTT1=
EXTT2=
EXTT3=
EXTT4=
EXTT5=
EXTT6=
EXTT7=
EXTT8=
EXTT9=
EXTT10=
PLAYORDER=
